# xmcd
#
# Track frame offsets: 
#        150
#        15954
#        31058
#        45466
#        64789
#        82683
#        96809
#        111675
#        127740
#        151370
#        169430
#
# Disc length: 2539 seconds
#
# Revision: 0
# Processed by: cddbd v1.5.2PL0 Copyright (c) Steve Scherf et al.
# Submitted via: ExactAudioCopyFreeDBPlugin 1.0
#
DISCID=7b09e90b
DTITLE=Ray Cashman - Desolation
DYEAR=2015
DGENRE=Blues
TTITLE0=Let The Good Times Roll
TTITLE1=Desolation
TTITLE2=You Don't know My Mind
TTITLE3=Whiskey, Weed, And Woman
TTITLE4=Wastin
TTITLE5=Tennessee Blues
TTITLE6=The Highway Kind
TTITLE7=Snake Feast
TTITLE8=The Day After Hell Burns Out
TTITLE9=Weather Song
TTITLE10=Time
EXTD=
EXTT0=
EXTT1=
EXTT2=
EXTT3=
EXTT4=
EXTT5=
EXTT6=
EXTT7=
EXTT8=
EXTT9=
EXTT10=
PLAYORDER=
